<?xml version="1.0" encoding="UTF-8"?><svg id="_レイヤー_2" xmlns="http://www.w3.org/2000/svg" viewBox="0 0 385.47 83.4"><defs><style>.cls-1{fill:none;}.cls-1,.cls-2,.cls-3,.cls-4,.cls-5{stroke-width:0px;}.cls-2{fill:#0f0f0f;}.cls-3{fill:#ffbd00;}.cls-4{fill:#ffd300;}.cls-5{fill:#ffca00;}</style></defs><g id="_レイヤー_1-2"><path class="cls-2" d="M195.27,32.9c-9.7,0-17.5,7.8-17.5,17.5s7.8,17.5,17.5,17.5,17.5-7.8,17.5-17.5-7.8-17.5-17.5-17.5ZM195.27,58.7c-4.5,0-8.2-3.7-8.2-8.2s3.7-8.2,8.2-8.2,8.2,3.7,8.2,8.2-3.7,8.2-8.2,8.2Z"/><polygon class="cls-2" points="214.57 33.9 224.87 66.9 235.17 66.9 240.47 50.1 245.77 66.9 255.97 66.9 266.27 33.9 256.27 33.9 250.87 51.2 245.47 33.9 235.47 33.9 230.07 51.2 224.67 33.9 214.57 33.9"/><polygon class="cls-2" points="270.97 33.9 277.07 33.9 277.07 23.7 287.37 23.7 287.37 33.9 293.57 33.9 293.57 42.2 287.37 42.2 287.37 66.9 277.07 66.9 277.07 42.2 270.97 42.2 270.97 33.9"/><polygon class="cls-2" points="344.57 17.5 356.97 17.5 365.07 31.5 373.07 17.5 385.47 17.5 371.17 42.2 385.47 66.9 373.07 66.9 365.07 52.9 356.97 66.9 344.57 66.9 358.87 42.2 344.57 17.5"/><path class="cls-2" d="M318.47,33.9s-4.8-.1-8.5,2.9v-19.3h-10.3v49.4h10.3v-17.3c0-3.8,2.6-6.4,6.2-6.4s6.2,2.9,6.2,6.4v17.3h10.3v-18.8c0-6.7-5.7-14.2-14.2-14.2Z"/><path class="cls-2" d="M171.37,33.9c-5.5,0-7.3,2.3-8,3.9v-3.9h-10.3v33h10.3v-16.4c0-7,4.2-8.2,7.2-8.2h5.1v-8.2c0-.2-.5-.2-4.3-.2Z"/><path class="cls-2" d="M147.87,41.2h-27.8v8.2h15.1c-2.5,4.6-7.4,7.7-13.1,7.7-8.2,0-14.9-6.7-14.9-14.9s6.7-14.9,14.9-14.9c5.2,0,9.8,2.7,12.4,6.7h12c-3.4-10.2-13.1-17.5-24.4-17.5-14.2,0-25.7,11.5-25.7,25.7s11.5,25.7,25.7,25.7c11.7,0,21.6-7.8,24.7-18.5.7-2.3,1-4.7,1-7.2.1-.4.1-.7.1-1Z"/><path class="cls-1" d="M39.87,18.3c-2.2,1-4.6,2.2-6.9,3.4-7.9,4.2-11.3,7.6-13.3,8.3-.2,2.4-.4,5-.5,7.7-.4,8.9,1,13.6.6,15.7,2,1.4,4.1,2.9,6.4,4.3,7.6,4.8,12.2,5.9,13.8,7.3,2.2-1,4.6-2.2,6.9-3.4,7.9-4.2,11.3-7.6,13.3-8.3.2-2.4.4-5,.5-7.7.4-8.9-1-13.6-.6-15.7-2-1.4-4.1-2.9-6.4-4.3-7.5-4.8-12.1-5.9-13.8-7.3Z"/><path class="cls-5" d="M19.67,30c.6-6.7,1.5-11.7,1.5-11.7,1-5.7,1.7-7.4.6-8.3-.2-.1-.3-.2-.5-.3-3.3-1.4-13,3.7-17.8,11.8-1.3,2.2-5.4,10-2.4,17.3.5,1.1,1,2,1.9,3.1.2-.1.4-.2.5-.3,1.3-.4,2.4,1,6.8,4.7,0,0,3.9,3.2,9.4,7.1.4-2.1-.9-6.7-.6-15.7.2-2.7.4-5.2.6-7.7Z"/><path class="cls-3" d="M26.17,57.7c-2.3-1.4-4.5-2.9-6.4-4.3-5.5-3.9-9.4-7.1-9.4-7.1-4.5-3.8-5.6-5.2-6.9-4.7-.2.1-.4.2-.5.3-2.8,2.2-3.3,13.1,1.3,21.3,1.2,2.2,5.9,9.7,13.8,10.7,1.2.2,2.3.1,3.6-.1v-.6c.3-1.3,2-1.6,7.5-3.6,0,0,4.7-1.7,10.9-4.6-1.7-1.4-6.4-2.5-13.9-7.3Z"/><path class="cls-4" d="M60.27,53.4c-2,.7-5.4,4.2-13.3,8.3-2.4,1.3-4.8,2.4-6.9,3.4-6.1,2.8-10.9,4.6-10.9,4.6-5.4,2-7.2,2.2-7.5,3.6v.6c.5,3.5,9.7,9.4,19.1,9.5,2.5,0,11.3-.3,16.2-6.5.7-1,1.3-1.9,1.7-3.2-.2-.1-.4-.2-.5-.3-1-.9-.4-2.6.6-8.3,0-.1.8-5.1,1.5-11.7Z"/><path class="cls-5" d="M78.87,44.5c-.5-1.1-1-2-1.9-3.1-.2.1-.4.3-.5.3-1.3.4-2.4-1-6.8-4.7,0,0-3.9-3.2-9.4-7.1-.4,2.1.9,6.7.6,15.7-.1,2.7-.3,5.3-.5,7.7-.6,6.7-1.5,11.7-1.5,11.7-1,5.7-1.7,7.4-.6,8.3.2.1.3.2.5.3,3.3,1.4,13-3.7,17.8-11.8,1.1-2.2,5.3-9.9,2.3-17.3Z"/><path class="cls-3" d="M75.67,20.1c-1.2-2.2-5.9-9.7-13.8-10.7-1.2-.2-2.3-.1-3.6.1v.6c-.3,1.3-2,1.6-7.5,3.6,0,0-4.7,1.7-10.9,4.6,1.6,1.4,6.3,2.6,13.8,7.3,2.3,1.4,4.5,2.9,6.4,4.3,5.5,3.9,9.4,7.1,9.4,7.1,4.5,3.7,5.5,5.1,6.8,4.7.2-.1.4-.2.5-.3,3-2.2,3.5-13.1-1.1-21.3Z"/><path class="cls-4" d="M58.27,9.5C57.77,6,48.57.1,39.17,0c-2.5,0-11.3.3-16.2,6.5-.7,1-1.3,1.9-1.7,3.2.2.1.4.2.5.3,1,.9.4,2.6-.6,8.3,0,0-.9,5-1.5,11.7,2-.7,5.4-4.2,13.3-8.3,2.4-1.3,4.8-2.4,6.9-3.4,6.1-2.8,10.9-4.6,10.9-4.6,5.4-2,7.2-2.2,7.5-3.6,0-.2,0-.4,0-.6Z"/></g></svg>